# xmcd CD database file
#
# Track frame offsets:
#	150
#	17233
#	34385
#
# Disc length: 684 seconds
#
# Revision: 1
# Processed by: cddbd v1.5.2PL0 Copyright (c) Steve Scherf et al.
# Submitted via: CDex 1.51
#
DISCID=2002aa03
DTITLE=桃月学園1年C組 - ぱにぽにだっしゅ！ OP2 - ルーレット☆ルーレット
DYEAR=2005
DGENRE=Anime
TTITLE0=桃月学園1年C組 feat. 一条さん - ルーレット☆ルーレット 一条さんVer.
TTITLE1=桃月学園1年C組 feat. 桃瀬くるみ - ルーレット☆ルーレット くるみVer.
TTITLE2=桃月学園1年C組 - ルーレット☆ルーレット Instrumental Version
EXTD=YEAR: 2005
EXTT0=
EXTT1=
EXTT2=
PLAYORDER=
